<?xml version="1.0" encoding="UTF-8"?>
<svg id="Layer_2" data-name="Layer 2" xmlns="http://www.w3.org/2000/svg" viewBox="0 0 400.49 531.49">
  <defs>
    <style>
      .cls-1 {
        fill: #444;
      }

      .cls-1, .cls-2 {
        stroke: #000;
        stroke-miterlimit: 10;
        stroke-width: 6px;
      }

      .cls-2 {
        fill: #f2c53d;
      }
    </style>
  </defs>
  <g id="Layer_1-2" data-name="Layer 1">
    <g>
      <path class="cls-1" d="M345.16,528.46c-106.55-1.31-216.89-111.56-216.89-111.56,0,0-61.1,128.98-84.75,106.48-2-1.85-3.54-6.24-4.7-12.79-.08-.46-.15-.85-.31-1.31v-.08c-4.62-27.58-3.78-89.84-3.54-161.64,1.54-4.7,1.69-9.94.08-15.95.08-98.62-1.93-211.18-21.65-275.52,0,0,66.41-.69,61.48-12.79,27.2,0,125.35,59.48,59.71,93.92-65.03,34.13,18.8,141.15,1.46,167.58-9.4,4.16-13.64,6.24-9.71,5.62,4.7-.77,7.86-2.7,9.71-5.62,44.92-19.57,209.1-85.52,192.38-127.28,3,2.7,74.04,67.88,1.31,97.16-74.35,29.97-154.79,89.68-154.79,89.68,59.86,71.19,187.45,127.28,187.45,127.28,0,0,89.37,38.06-17.26,36.83Z"/>
      <path class="cls-2" d="M13.4,56.09c-2.47-7.94-5.16-15.1-8.17-21.5-4.01-8.47-1.69-20.42-.23-29.74,2-12.02,26.12,38.45,69.88,38.45,4.93,12.1-61.48,12.79-61.48,12.79Z"/>
    </g>
  </g>
</svg>