<?xml version="1.0" encoding="UTF-8"?>
<svg id="Layer_1" xmlns="http://www.w3.org/2000/svg" version="1.1" viewBox="0 0 984.63 533.85">
  <!-- Generator: Adobe Illustrator 29.8.2, SVG Export Plug-In . SVG Version: 2.1.1 Build 3)  -->
  <defs>
    <style>
      .st0, .st1 {
        fill: #444;
      }

      .st0, .st1, .st2, .st3, .st4 {
        stroke: #000;
        stroke-miterlimit: 10;
      }

      .st1, .st3 {
        stroke-width: 6px;
      }

      .st3 {
        fill: #f2c53d;
      }

      .st4 {
        fill: #333;
      }
    </style>
  </defs>
  <path class="st2" d="M740.21,89.67"/>
  <path class="st4" d="M769.37,81.77"/>
  <path class="st4" d="M761.89,47.16"/>
  <g>
    <g>
      <path class="st1" d="M312.87,358.26"/>
      <path class="st1" d="M197.78,310.49c1.12-5.15,2.93-9.54,4.83-14.03,5.94-14,15.43-28.26,35.01-62.6C366.6,7.58,276.84,10.35,276.84,10.35c0,0-109.56-28.82-140.07,340.39,0,0-89.91,28.04-110.48-61.71,0,0-52.39,56.09,0,85.98,52.31,29.97,106.71,29.97,106.71,29.97-2.08,37.44-3.39,78.51-3.85,123.43,0,0,83.4-36.5,71.04-120.65,0,0-10.44-60.13-2.4-97.27Z"/>
      <path class="st1" d="M320.19,33c-44.15,220.35-102.4,328.35-102.24,394.13.01,4.2-.15,8.29.13,12.49,1.28,19.44,2.89,88.99,110.48,88.99,125.77,0-14.23-32.71-40.47-47.94-41.99-24.37,86.78-461.8,96.81-447.68,9,12.67-50-73.43-64.71,0Z"/>
      <path class="st1" d="M269.9,200.05"/>
      <path class="st1" d="M108.68,397.87"/>
      <path class="st1" d="M129.11,348.16"/>
      <path class="st1" d="M190.12,307.9"/>
      <path class="st1" d="M393.9,142.4"/>
    </g>
    <path class="st1" d="M368.3,495.74"/>
    <path class="st1" d="M332.6,452.32"/>
    <path class="st1" d="M313.26,420.53"/>
    <path class="st1" d="M512.42,425.67c21.77,50.51-44.58,99.58-99.58,99.58s-99.58-44.58-99.58-99.58,129.27-145.87,99.58-99.58c-27.01,42.11,86.17,68.46,99.58,99.58Z"/>
    <path class="st1" d="M619.03,512.28c.54,4.08-1.39,8.17-6.7,12.33-31.2,24.27-99.62-44.61-99.62-99.62s90.23-153.3,91.12-93.66c.05,3.07,10.81-.49,11.43,1.97,1.62,6.01-16.17,30.2-17.71,34.9-9.09,28.82-49.86,18.42-46.01,56.79,4.39,44.3,62.02,66.26,67.18,85.91v.08c.08.46.15.92.31,1.31Z"/>
    <path class="st1" d="M929.3,530.82c-106.55-1.31-216.89-111.56-216.89-111.56,0,0-61.1,128.98-84.75,106.48-2-1.85-3.54-6.24-4.7-12.79-.08-.46-.15-.85-.31-1.31v-.08c-4.62-27.58-3.78-89.84-3.54-161.64,1.54-4.7,1.69-9.94.08-15.95.08-98.62-1.93-211.18-21.65-275.52,0,0,66.41-.69,61.48-12.79,27.2,0,125.35,59.48,59.71,93.92-65.03,34.13,18.8,141.15,1.46,167.58-9.4,4.16-13.64,6.24-9.71,5.62,4.7-.77,7.86-2.7,9.71-5.62,44.92-19.57,209.1-85.52,192.38-127.28,3,2.7,74.04,67.88,1.31,97.16-74.35,29.97-154.79,89.68-154.79,89.68,59.86,71.19,187.45,127.28,187.45,127.28,0,0,89.37,38.06-17.26,36.83Z"/>
    <path class="st1" d="M619.19,333.97c1.62,6.01,1.46,11.25-.08,15.95.08-5.24.08-10.56.08-15.95Z"/>
    <path class="st1" d="M720.2,307.16c-1.85,2.93-5.01,4.85-9.71,5.62-3.93.62.31-1.46,9.71-5.62Z"/>
    <path class="st3" d="M597.54,58.45c-2.47-7.94-5.16-15.1-8.17-21.5-4.01-8.47-1.69-20.42-.23-29.74,2-12.02,26.12,38.45,69.88,38.45,4.93,12.1-61.48,12.79-61.48,12.79Z"/>
    <path class="st1" d="M326.78,370.63"/>
    <path class="st1" d="M321.24,387.79"/>
    <path class="st1" d="M322.01,387.37"/>
    <path class="st1" d="M346.42,350.99"/>
    <path class="st1" d="M359.62,331.33"/>
    <path class="st1" d="M358.25,330.08"/>
    <path class="st1" d="M353.44,332.2"/>
    <path class="st1" d="M171.56,368.2"/>
    <path class="st0" d="M351.1,37.91"/>
    <path class="st0" d="M414.96,31.91"/>
    <path class="st1" d="M579.43,251.17"/>
    <path class="st1" d="M482,218.54"/>
    <path class="st1" d="M245.7,433.63"/>
  </g>
</svg>